<svg width="356" height="560" xmlns="http://www.w3.org/2000/svg" xml:space="preserve" version="1.1">
  <circle cx="180" cy="175" r="146" stroke="null" fill="#fff"/>
	<path stroke="null" d="m235.61751,176.19608c-21.71173,0 -40.08235,17.53589 -40.08235,40.08161c0,22.54646 17.53589,40.08235 40.08235,40.08235c21.71173,0 40.08235,-17.53589 40.08235,-40.08235c0,-22.54572 -18.37061,-40.08161 -40.08235,-40.08161zm0,72.64847c-18.37061,0 -32.56612,-14.19551 -32.56612,-32.56686c0,-18.37061 14.19551,-32.56612 32.56612,-32.56612c17.53589,0 32.56612,14.19551 32.56612,32.56612c0,18.37135 -14.19551,32.56686 -32.56612,32.56686z" fill="#D4145A"/>
	<path stroke="null" d="m119.54705,176.19608c-21.71099,0 -40.08235,17.53589 -40.08235,40.08161c0,22.54646 17.53589,40.08235 40.08235,40.08235c21.71099,0 40.08235,-17.53589 40.08235,-40.08235c-0.00074,-22.54572 -18.37135,-40.08161 -40.08235,-40.08161zm0,72.64847c-18.37135,0 -32.56612,-14.19551 -32.56612,-32.56686c0,-18.37061 14.19551,-32.56612 32.56612,-32.56612c17.53589,0 32.56612,14.19551 32.56612,32.56612c0,18.37135 -14.19551,32.56686 -32.56612,32.56686z" fill="#D4145A"/>
	<path stroke="null" d="m190.52459,113.56802c10.85587,0 19.20608,-8.35021 19.20608,-19.20608s-8.35021,-19.20608 -19.20608,-19.20608c-10.85587,0 -19.20534,8.35021 -19.20534,19.20608s8.34947,19.20608 19.20534,19.20608z" fill="#D4145A"/>
	<polygon stroke="null" points="173.82416677474976,200.4119873046875 173.82416677474976,232.97886657714844 192.19555044174194,232.97886657714844 192.19555044174194,187.88665771484375 160.46340322494507,163.67002868652344 177.16454458236694,140.288818359375 223.92690420150757,164.50550842285156 230.60695791244507,151.1446990966797 185.51548147201538,127.76349639892578 190.52457571029663,121.08274841308594 170.48378896713257,106.88723754882812 128.73200368881226,166.17568969726562 145.43314504623413,178.70101928710938 " fill="#D4145A"/>
	<path stroke="null" d="m194.70117,234.64904l-17.53663,0c-3.33964,0 -5.8453,2.50492 -5.8453,5.8453s2.50565,5.01057 5.8453,5.01057l17.53663,0c3.33964,0 5.00909,-2.50492 5.00909,-5.01057c-0.00074,-3.34038 -1.66945,-5.8453 -5.00909,-5.8453z" fill="#D4145A"/>
	<path stroke="null" d="m178.00001,3.34212c-96.03039,0 -174.52415,78.49376 -174.52415,174.52415s174.52415,379.10877 174.52415,379.10877s174.52415,-283.07912 174.52415,-379.9435c-0.00148,-96.03039 -78.49524,-173.68943 -174.52415,-173.68943zm0,310.63615c-78.49376,0 -141.95729,-63.46353 -141.95729,-141.95729s63.46353,-141.95729 141.95729,-141.95729s141.95655,63.46353 141.95655,141.95729c-0.83473,78.49376 -64.29825,141.95729 -141.95655,141.95729z" fill="#D4145A"/>
</svg>