<svg width="365" height="560" xmlns="http://www.w3.org/2000/svg" xml:space="preserve" version="1.1">
	<circle cx="185" cy="180" r="141" stroke="null" fill="#fff"/>
	<path fill="#D4145A" fill-rule="evenodd" stroke="null" d="m182.50448,40.64937c75.44437,0 136.81153,61.41095 136.81153,136.85532s-61.38414,136.80348 -136.81153,136.80348c-75.48013,0 -136.86426,-61.36715 -136.86426,-136.80348s61.38503,-136.85532 136.86426,-136.85532m0,-39.98898c-97.67885,0 -176.84431,79.15652 -176.84431,176.83537c0,97.64399 176.84431,384.50761 176.84431,384.50761s176.83537,-286.86273 176.83537,-384.50761c0.00894,-97.67885 -79.17351,-176.83537 -176.83537,-176.83537zm45.29844,114.30711c-9.53647,-8.59346 -24.60943,-13.40504 -45.13219,-13.40504c-16.73284,0 -29.84917,1.45876 -39.90139,3.13473l0,159.0898l20.79359,0l0,-64.51976c4.78566,1.22278 10.49735,1.44088 16.71496,1.44088c20.32164,0 37.98855,-5.98253 49.20188,-17.67585c8.15637,-8.35748 12.47097,-19.84164 12.47097,-34.39081c-0.02682,-14.34805 -5.55437,-26.05031 -14.14783,-33.67395zm-47.04502,69.01671c-6.93448,0 -12.68013,-0.49787 -17.21284,-1.67686l0,-62.57206c3.59774,-0.96893 10.49735,-1.69384 19.57975,-1.69384c22.69749,0 37.98855,10.27032 37.98855,31.77988c0.00894,21.74465 -15.28302,34.16288 -40.35546,34.16288z"/>
</svg>